<svg xmlns="http://www.w3.org/2000/svg" viewBox="0 0 1080 1350"><rect width="1080" height="1350" fill="#000"/><text x="80" y="430" text-anchor="start" font-family="'Inter Tight','Inter','Helvetica Neue',Arial,sans-serif" font-weight="300" font-size="340" fill="#26262a" letter-spacing="-12">X = 10</text><text x="80" y="560" text-anchor="start" font-family="'Inter Tight','Inter','Helvetica Neue',Arial,sans-serif" font-weight="300" font-size="42" fill="#8b8b90" letter-spacing="0">La X es el 10 romano: la meta de hacer cada</text><text x="80" y="615" text-anchor="start" font-family="'Inter Tight','Inter','Helvetica Neue',Arial,sans-serif" font-weight="300" font-size="42" fill="#8b8b90" letter-spacing="0">trabajo con nota diez.</text><line x1="80" y1="780" x2="1000" y2="780" stroke="#4C82CF" stroke-width="3"/><line x1="1000" y1="766" x2="1000" y2="794" stroke="#4C82CF" stroke-width="3"/><text x="80" y="930" text-anchor="start" font-family="'Inter Tight','Inter','Helvetica Neue',Arial,sans-serif" font-weight="300" font-size="84" fill="#f2f2f2" letter-spacing="-4">Cotiza tu producción.</text><text x="80" y="1010" text-anchor="start" font-family="'Inter Tight','Inter','Helvetica Neue',Arial,sans-serif" font-weight="300" font-size="40" fill="#8b8b90" letter-spacing="0">Escríbenos por mensaje directo.</text><text x="80" y="1065" text-anchor="start" font-family="'Inter Tight','Inter','Helvetica Neue',Arial,sans-serif" font-weight="400" font-size="40" fill="#f2f2f2" letter-spacing="0">@produavx</text><g transform="translate(85.0 1225.0) scale(0.700)">
<defs><linearGradient id="g1" gradientUnits="userSpaceOnUse" x1="8" y1="15" x2="92" y2="85"><stop offset="0" stop-color="#4E9A6B"/><stop offset="1" stop-color="#4C82CF"/></linearGradient>
<linearGradient id="g2" gradientUnits="userSpaceOnUse" x1="92" y1="15" x2="8" y2="85"><stop offset="0" stop-color="#4C82CF"/><stop offset="1" stop-color="#4E9A6B"/></linearGradient></defs>
<g fill="none" stroke-width="4.6" stroke-linejoin="round" stroke-linecap="round">
<polygon points="66,15 92,15 34,85 8,85" stroke="url(#g2)"/>
<polygon points="8,15 34,15 92,85 66,85" stroke="url(#g1)"/>
<line x1="62.4" y1="20.2" x2="46" y2="40" stroke="#000" stroke-width="7.4" stroke-linecap="butt"/>
<line x1="46.5" y1="30.1" x2="53.5" y2="38.5" stroke="#000" stroke-width="8.6" stroke-linecap="butt"/><line x1="46.5" y1="30.1" x2="53.5" y2="38.5" stroke="url(#g1)" stroke-width="4.6" stroke-linecap="butt"/>
</g><circle cx="55" cy="28" r="3" fill="#4C82CF"/></g><text x="1000" y="1290" text-anchor="end" font-family="'Inter Tight','Inter','Helvetica Neue',Arial,sans-serif" font-weight="300" font-size="30" fill="#8b8b90" letter-spacing="0">5/5</text><circle cx="500" cy="1300" r="5" fill="#8b8b90"/><circle cx="526" cy="1300" r="5" fill="#8b8b90"/><circle cx="552" cy="1300" r="5" fill="#8b8b90"/><circle cx="578" cy="1300" r="5" fill="#8b8b90"/><circle cx="604" cy="1300" r="5" fill="#f2f2f2"/></svg>