<svg xmlns="http://www.w3.org/2000/svg" viewBox="0 0 512 512" role="img" aria-label="ConstruAVX"><defs>
<filter id="glow" x="-50%" y="-50%" width="200%" height="200%"><feGaussianBlur stdDeviation="3" result="b"/><feFlood flood-color="#E0B030" flood-opacity=".35" result="f"/><feComposite in="f" in2="b" operator="in" result="cg"/><feMerge><feMergeNode in="cg"/><feMergeNode in="SourceGraphic"/></feMerge></filter>
<filter id="tglow" x="-20%" y="-50%" width="140%" height="200%"><feGaussianBlur stdDeviation="6" result="b"/><feFlood flood-color="#E0B030" flood-opacity=".55" result="f"/><feComposite in="f" in2="b" operator="in" result="cg"/><feMerge><feMergeNode in="cg"/><feMergeNode in="SourceGraphic"/></feMerge></filter>
<radialGradient id="neb" cx=".5" cy=".3" r=".6"><stop offset="0" stop-color="#E0B030" stop-opacity=".13"/><stop offset="1" stop-color="#E0B030" stop-opacity="0"/></radialGradient>
<linearGradient id="xg" x1="0" y1="0" x2="1" y2="1"><stop offset="0" stop-color="#E0B030"/><stop offset="1" stop-color="#C8473D"/></linearGradient><clipPath id="lh"><rect x="-20" y="50" width="140" height="70"/></clipPath>
<linearGradient id="streak" x1="0" y1="0" x2="1" y2="1"><stop offset="0" stop-color="#fff" stop-opacity="0"/><stop offset=".35" stop-color="#E0B030" stop-opacity="1"/><stop offset="1" stop-color="#fff" stop-opacity="0"/></linearGradient>
</defs>
<rect width="512" height="512" fill="#05060a"/><rect width="512" height="512" fill="url(#neb)"/>
<circle cx="232" cy="287" r="1.4" fill="#fff" opacity="0.54"/>
<circle cx="438" cy="97" r="2" fill="#fff" opacity="0.56"/>
<circle cx="314" cy="95" r="1.4" fill="#fff" opacity="0.45"/>
<circle cx="46" cy="415" r="0.8" fill="#fff" opacity="0.64"/>
<circle cx="203" cy="232" r="2" fill="#fff" opacity="0.67"/>
<circle cx="319" cy="426" r="0.8" fill="#fff" opacity="0.29"/>
<circle cx="97" cy="124" r="0.8" fill="#fff" opacity="0.76"/>
<circle cx="167" cy="303" r="1" fill="#fff" opacity="0.59"/>
<circle cx="328" cy="256" r="0.8" fill="#fff" opacity="0.55"/>
<circle cx="142" cy="511" r="0.8" fill="#fff" opacity="0.71"/>
<circle cx="161" cy="118" r="1" fill="#fff" opacity="0.27"/>
<circle cx="288" cy="55" r="0.8" fill="#fff" opacity="0.80"/>
<circle cx="198" cy="491" r="0.8" fill="#fff" opacity="0.39"/>
<circle cx="475" cy="27" r="1.4" fill="#fff" opacity="0.89"/>
<circle cx="203" cy="37" r="1" fill="#fff" opacity="0.76"/>
<circle cx="138" cy="45" r="1" fill="#fff" opacity="0.26"/>
<circle cx="210" cy="472" r="1" fill="#fff" opacity="0.41"/>
<circle cx="52" cy="31" r="1.4" fill="#fff" opacity="0.37"/>
<circle cx="286" cy="229" r="1" fill="#fff" opacity="0.89"/>
<circle cx="394" cy="215" r="1.4" fill="#fff" opacity="0.33"/>
<circle cx="215" cy="109" r="1" fill="#fff" opacity="0.81"/>
<circle cx="499" cy="303" r="0.8" fill="#fff" opacity="0.39"/>
<circle cx="202" cy="437" r="2" fill="#fff" opacity="0.32"/>
<circle cx="507" cy="109" r="1" fill="#fff" opacity="0.26"/>
<circle cx="312" cy="425" r="1.4" fill="#fff" opacity="0.30"/>
<circle cx="46" cy="298" r="1" fill="#fff" opacity="0.26"/>
<circle cx="189" cy="319" r="1" fill="#fff" opacity="0.87"/>
<circle cx="248" cy="294" r="1.4" fill="#fff" opacity="0.37"/>
<circle cx="79" cy="465" r="2" fill="#fff" opacity="0.41"/>
<circle cx="97" cy="379" r="2" fill="#fff" opacity="0.38"/>
<circle cx="486" cy="452" r="2" fill="#fff" opacity="0.30"/>
<circle cx="24" cy="56" r="2" fill="#fff" opacity="0.88"/>
<circle cx="122" cy="361" r="1" fill="#fff" opacity="0.52"/>
<circle cx="463" cy="251" r="2" fill="#fff" opacity="0.36"/>
<circle cx="369" cy="35" r="1" fill="#fff" opacity="0.56"/>
<circle cx="335" cy="315" r="0.8" fill="#fff" opacity="0.43"/>
<circle cx="470" cy="104" r="0.8" fill="#fff" opacity="0.29"/>
<circle cx="211" cy="128" r="0.8" fill="#fff" opacity="0.36"/>
<circle cx="189" cy="293" r="1" fill="#fff" opacity="0.31"/>
<circle cx="71" cy="231" r="1" fill="#fff" opacity="0.68"/>
<circle cx="354" cy="299" r="1" fill="#fff" opacity="0.63"/>
<circle cx="473" cy="243" r="1" fill="#fff" opacity="0.71"/>
<circle cx="493" cy="11" r="0.8" fill="#fff" opacity="0.56"/>
<circle cx="374" cy="163" r="0.8" fill="#fff" opacity="0.30"/>
<circle cx="280" cy="377" r="1" fill="#fff" opacity="0.77"/>
<circle cx="468" cy="180" r="1.4" fill="#fff" opacity="0.84"/>
<circle cx="446" cy="214" r="0.8" fill="#fff" opacity="0.81"/>
<circle cx="293" cy="320" r="1.4" fill="#fff" opacity="0.50"/>
<circle cx="6" cy="37" r="0.8" fill="#fff" opacity="0.67"/>
<circle cx="509" cy="450" r="1" fill="#fff" opacity="0.50"/>
<g transform="translate(141.0 131.0) scale(2.300)">
<line x1="-8" y1="-12" x2="108" y2="114" stroke="#fff" stroke-opacity=".22" stroke-width="1.6" stroke-linecap="round"/>
<g transform="translate(7 0) skewX(-8)" fill="none" stroke="url(#xg)" stroke-width="6" stroke-linejoin="round">
<polygon points="12,10 36,10 88,90 64,90"/>
<polygon points="64,10 88,10 36,90 12,90" fill="#000"/>
<g clip-path="url(#lh)"><polygon points="12,10 36,10 88,90 64,90" fill="#000"/></g>
</g>
<circle cx="97" cy="8" r="4.2" fill="#C8473D"/></g>
</svg>