<svg xmlns="http://www.w3.org/2000/svg" viewBox="0 0 1080 1920" role="img" aria-label="ConstruAVX"><defs>
<filter id="glow" x="-50%" y="-50%" width="200%" height="200%"><feGaussianBlur stdDeviation="3" result="b"/><feFlood flood-color="#E0B030" flood-opacity=".35" result="f"/><feComposite in="f" in2="b" operator="in" result="cg"/><feMerge><feMergeNode in="cg"/><feMergeNode in="SourceGraphic"/></feMerge></filter>
<filter id="tglow" x="-20%" y="-50%" width="140%" height="200%"><feGaussianBlur stdDeviation="6" result="b"/><feFlood flood-color="#E0B030" flood-opacity=".55" result="f"/><feComposite in="f" in2="b" operator="in" result="cg"/><feMerge><feMergeNode in="cg"/><feMergeNode in="SourceGraphic"/></feMerge></filter>
<radialGradient id="neb" cx=".5" cy=".3" r=".6"><stop offset="0" stop-color="#E0B030" stop-opacity=".13"/><stop offset="1" stop-color="#E0B030" stop-opacity="0"/></radialGradient>
<linearGradient id="streak" x1="0" y1="0" x2="1" y2="1"><stop offset="0" stop-color="#fff" stop-opacity="0"/><stop offset=".35" stop-color="#E0B030" stop-opacity="1"/><stop offset="1" stop-color="#fff" stop-opacity="0"/></linearGradient>
</defs>
<rect width="1080" height="1920" fill="#05060a"/><rect width="1080" height="1920" fill="url(#neb)"/>
<circle cx="592" cy="253" r="2" fill="#fff" opacity="0.45"/>
<circle cx="1013" cy="370" r="1.4" fill="#fff" opacity="0.36"/>
<circle cx="1043" cy="1677" r="0.8" fill="#fff" opacity="0.57"/>
<circle cx="238" cy="1464" r="2" fill="#fff" opacity="0.80"/>
<circle cx="167" cy="417" r="0.8" fill="#fff" opacity="0.53"/>
<circle cx="143" cy="1291" r="1" fill="#fff" opacity="0.29"/>
<circle cx="592" cy="1798" r="1" fill="#fff" opacity="0.31"/>
<circle cx="258" cy="509" r="0.8" fill="#fff" opacity="0.86"/>
<circle cx="617" cy="543" r="1" fill="#fff" opacity="0.48"/>
<circle cx="472" cy="384" r="2" fill="#fff" opacity="0.43"/>
<circle cx="396" cy="555" r="1" fill="#fff" opacity="0.63"/>
<circle cx="753" cy="1495" r="1" fill="#fff" opacity="0.35"/>
<circle cx="356" cy="1027" r="1" fill="#fff" opacity="0.76"/>
<circle cx="120" cy="20" r="1" fill="#fff" opacity="0.52"/>
<circle cx="957" cy="1" r="2" fill="#fff" opacity="0.84"/>
<circle cx="690" cy="902" r="2" fill="#fff" opacity="0.42"/>
<circle cx="827" cy="370" r="2" fill="#fff" opacity="0.85"/>
<circle cx="241" cy="1215" r="2" fill="#fff" opacity="0.36"/>
<circle cx="168" cy="532" r="2" fill="#fff" opacity="0.78"/>
<circle cx="750" cy="1093" r="2" fill="#fff" opacity="0.89"/>
<circle cx="423" cy="825" r="0.8" fill="#fff" opacity="0.84"/>
<circle cx="572" cy="79" r="0.8" fill="#fff" opacity="0.27"/>
<circle cx="801" cy="1309" r="1" fill="#fff" opacity="0.49"/>
<circle cx="98" cy="1550" r="2" fill="#fff" opacity="0.54"/>
<circle cx="933" cy="843" r="1.4" fill="#fff" opacity="0.84"/>
<circle cx="93" cy="307" r="0.8" fill="#fff" opacity="0.81"/>
<circle cx="1075" cy="1159" r="1" fill="#fff" opacity="0.80"/>
<circle cx="381" cy="758" r="2" fill="#fff" opacity="0.53"/>
<circle cx="294" cy="38" r="1" fill="#fff" opacity="0.84"/>
<circle cx="429" cy="810" r="1" fill="#fff" opacity="0.87"/>
<circle cx="501" cy="1659" r="0.8" fill="#fff" opacity="0.67"/>
<circle cx="75" cy="1676" r="1" fill="#fff" opacity="0.85"/>
<circle cx="114" cy="456" r="1" fill="#fff" opacity="0.38"/>
<circle cx="142" cy="1224" r="1.4" fill="#fff" opacity="0.75"/>
<circle cx="78" cy="1134" r="0.8" fill="#fff" opacity="0.50"/>
<circle cx="548" cy="1412" r="2" fill="#fff" opacity="0.35"/>
<circle cx="1001" cy="244" r="0.8" fill="#fff" opacity="0.31"/>
<circle cx="410" cy="1483" r="1.4" fill="#fff" opacity="0.62"/>
<circle cx="356" cy="766" r="1" fill="#fff" opacity="0.76"/>
<circle cx="518" cy="363" r="0.8" fill="#fff" opacity="0.68"/>
<circle cx="447" cy="1115" r="0.8" fill="#fff" opacity="0.38"/>
<circle cx="199" cy="1884" r="1" fill="#fff" opacity="0.80"/>
<circle cx="437" cy="689" r="2" fill="#fff" opacity="0.36"/>
<circle cx="920" cy="657" r="1" fill="#fff" opacity="0.59"/>
<circle cx="600" cy="1313" r="0.8" fill="#fff" opacity="0.28"/>
<circle cx="1048" cy="1188" r="1" fill="#fff" opacity="0.87"/>
<circle cx="57" cy="38" r="0.8" fill="#fff" opacity="0.75"/>
<circle cx="237" cy="188" r="1.4" fill="#fff" opacity="0.57"/>
<circle cx="796" cy="1725" r="0.8" fill="#fff" opacity="0.88"/>
<circle cx="728" cy="148" r="2" fill="#fff" opacity="0.81"/>
<circle cx="453" cy="1687" r="1" fill="#fff" opacity="0.69"/>
<circle cx="621" cy="1076" r="1" fill="#fff" opacity="0.83"/>
<circle cx="770" cy="796" r="2" fill="#fff" opacity="0.60"/>
<circle cx="789" cy="686" r="1" fill="#fff" opacity="0.79"/>
<circle cx="224" cy="1182" r="1.4" fill="#fff" opacity="0.58"/>
<circle cx="862" cy="1811" r="2" fill="#fff" opacity="0.36"/>
<circle cx="1030" cy="1711" r="1" fill="#fff" opacity="0.53"/>
<circle cx="965" cy="464" r="1" fill="#fff" opacity="0.62"/>
<circle cx="958" cy="821" r="2" fill="#fff" opacity="0.77"/>
<circle cx="276" cy="154" r="1.4" fill="#fff" opacity="0.32"/>
<circle cx="646" cy="526" r="1.4" fill="#fff" opacity="0.80"/>
<circle cx="777" cy="1548" r="1" fill="#fff" opacity="0.42"/>
<circle cx="756" cy="615" r="1" fill="#fff" opacity="0.76"/>
<circle cx="950" cy="1624" r="0.8" fill="#fff" opacity="0.72"/>
<circle cx="1014" cy="1234" r="0.8" fill="#fff" opacity="0.72"/>
<circle cx="886" cy="796" r="2" fill="#fff" opacity="0.35"/>
<circle cx="1012" cy="567" r="1" fill="#fff" opacity="0.44"/>
<circle cx="829" cy="601" r="1.4" fill="#fff" opacity="0.30"/>
<circle cx="46" cy="459" r="0.8" fill="#fff" opacity="0.55"/>
<circle cx="371" cy="1324" r="2" fill="#fff" opacity="0.43"/>
<circle cx="456" cy="665" r="1" fill="#fff" opacity="0.60"/>
<circle cx="493" cy="1576" r="1" fill="#fff" opacity="0.83"/>
<circle cx="100" cy="895" r="1" fill="#fff" opacity="0.88"/>
<circle cx="322" cy="409" r="1.4" fill="#fff" opacity="0.43"/>
<circle cx="448" cy="1547" r="2" fill="#fff" opacity="0.73"/>
<circle cx="31" cy="1565" r="0.8" fill="#fff" opacity="0.85"/>
<circle cx="191" cy="759" r="2" fill="#fff" opacity="0.27"/>
<circle cx="401" cy="1168" r="1.4" fill="#fff" opacity="0.87"/>
<circle cx="820" cy="906" r="0.8" fill="#fff" opacity="0.27"/>
<circle cx="532" cy="401" r="1.4" fill="#fff" opacity="0.59"/>
<circle cx="108" cy="1751" r="1.4" fill="#fff" opacity="0.83"/>
<circle cx="501" cy="201" r="0.8" fill="#fff" opacity="0.73"/>
<circle cx="167" cy="1503" r="1.4" fill="#fff" opacity="0.25"/>
<circle cx="480" cy="1442" r="1" fill="#fff" opacity="0.88"/>
<circle cx="1075" cy="231" r="1" fill="#fff" opacity="0.55"/>
<circle cx="87" cy="1157" r="1.4" fill="#fff" opacity="0.31"/>
<circle cx="862" cy="465" r="1" fill="#fff" opacity="0.86"/>
<circle cx="1032" cy="1041" r="1" fill="#fff" opacity="0.88"/>
<circle cx="7" cy="1188" r="0.8" fill="#fff" opacity="0.33"/>
<circle cx="955" cy="1633" r="2" fill="#fff" opacity="0.65"/>
<circle cx="483" cy="991" r="1" fill="#fff" opacity="0.86"/>
<circle cx="53" cy="132" r="1" fill="#fff" opacity="0.72"/>
<circle cx="1068" cy="1800" r="1.4" fill="#fff" opacity="0.35"/>
<circle cx="3" cy="232" r="1" fill="#fff" opacity="0.28"/>
<circle cx="627" cy="1704" r="1.4" fill="#fff" opacity="0.39"/>
<circle cx="523" cy="387" r="0.8" fill="#fff" opacity="0.75"/>
<circle cx="641" cy="1214" r="1" fill="#fff" opacity="0.54"/>
<circle cx="817" cy="702" r="2" fill="#fff" opacity="0.73"/>
<circle cx="724" cy="1890" r="1" fill="#fff" opacity="0.50"/>
<circle cx="764" cy="1198" r="2" fill="#fff" opacity="0.62"/>
<circle cx="804" cy="1699" r="1.4" fill="#fff" opacity="0.63"/>
<circle cx="639" cy="1871" r="2" fill="#fff" opacity="0.69"/>
<circle cx="133" cy="586" r="1" fill="#fff" opacity="0.51"/>
<circle cx="1002" cy="30" r="1.4" fill="#fff" opacity="0.72"/>
<circle cx="927" cy="1010" r="1.4" fill="#fff" opacity="0.53"/>
<circle cx="707" cy="1846" r="1" fill="#fff" opacity="0.88"/>
<circle cx="285" cy="1807" r="1" fill="#fff" opacity="0.66"/>
<circle cx="836" cy="765" r="1" fill="#fff" opacity="0.78"/>
<circle cx="965" cy="78" r="1.4" fill="#fff" opacity="0.46"/>
<circle cx="94" cy="1874" r="1" fill="#fff" opacity="0.86"/>
<circle cx="1050" cy="1082" r="1" fill="#fff" opacity="0.37"/>
<circle cx="862" cy="1796" r="1.4" fill="#fff" opacity="0.79"/>
<circle cx="602" cy="133" r="1" fill="#fff" opacity="0.77"/>
<circle cx="346" cy="456" r="0.8" fill="#fff" opacity="0.44"/>
<circle cx="245" cy="1682" r="1" fill="#fff" opacity="0.82"/>
<circle cx="103" cy="1475" r="1" fill="#fff" opacity="0.28"/>
<circle cx="724" cy="478" r="1" fill="#fff" opacity="0.26"/>
<circle cx="833" cy="1066" r="2" fill="#fff" opacity="0.45"/>
<circle cx="1048" cy="456" r="1.4" fill="#fff" opacity="0.73"/>
<circle cx="803" cy="1601" r="1" fill="#fff" opacity="0.85"/>
<circle cx="505" cy="1579" r="1" fill="#fff" opacity="0.41"/>
<circle cx="1073" cy="1505" r="1" fill="#fff" opacity="0.79"/>
<circle cx="553" cy="1538" r="2" fill="#fff" opacity="0.52"/>
<circle cx="482" cy="540" r="0.8" fill="#fff" opacity="0.51"/>
<circle cx="717" cy="673" r="1.4" fill="#fff" opacity="0.57"/>
<circle cx="525" cy="304" r="1.4" fill="#fff" opacity="0.55"/>
<circle cx="593" cy="587" r="1.4" fill="#fff" opacity="0.71"/>
<circle cx="97" cy="1456" r="1" fill="#fff" opacity="0.66"/>
<circle cx="584" cy="1479" r="1" fill="#fff" opacity="0.83"/>
<circle cx="143" cy="794" r="2" fill="#fff" opacity="0.80"/>
<circle cx="547" cy="996" r="2" fill="#fff" opacity="0.56"/>
<circle cx="830" cy="314" r="1" fill="#fff" opacity="0.36"/>
<circle cx="373" cy="261" r="1.4" fill="#fff" opacity="0.37"/>
<circle cx="258" cy="1100" r="2" fill="#fff" opacity="0.69"/>
<circle cx="527" cy="263" r="0.8" fill="#fff" opacity="0.82"/>
<circle cx="596" cy="1601" r="2" fill="#fff" opacity="0.69"/>
<circle cx="52" cy="1192" r="1.4" fill="#fff" opacity="0.60"/>
<circle cx="299" cy="1146" r="1.4" fill="#fff" opacity="0.81"/>
<circle cx="831" cy="860" r="1" fill="#fff" opacity="0.34"/>
<circle cx="280" cy="1797" r="1" fill="#fff" opacity="0.35"/>
<g transform="translate(465.0 485.0) scale(1.500)" filter="url(#glow)">
<line x1="-8" y1="-12" x2="106" y2="114" stroke="url(#streak)" stroke-width="2.5" stroke-linecap="round"/>
<polygon transform="translate(10.6 0) skewX(-12)" points="14,14 36,14 50,34 64,14 86,14 62,50 86,86 64,86 50,66 36,86 14,86 38,50" fill="#05060a" stroke="#E0B030" stroke-width="4" stroke-linejoin="round"/>
<path d="M30 112 L50 98 L70 112" fill="none" stroke="#C8473D" stroke-width="4" stroke-linecap="round" stroke-linejoin="round"/></g>
<text x="540" y="1010" text-anchor="middle" font-family="'Archivo Black','Inter Tight','Helvetica Neue',Arial,sans-serif" font-weight="900" font-size="170" letter-spacing="-6" textLength="900" lengthAdjust="spacingAndGlyphs" filter="url(#tglow)"><tspan fill="#8b8b90">Constru</tspan><tspan fill="#f2f2f2">AV</tspan><tspan fill="#E0B030">X</tspan></text>
<text x="540" y="1200" text-anchor="middle" font-family="'Archivo Black','Inter Tight','Helvetica Neue',Arial,sans-serif" font-size="64" fill="#e6e6e6" letter-spacing="-2">Te ayudamos a construir</text>
<text x="540" y="1290" text-anchor="middle" font-family="'Archivo Black','Inter Tight','Helvetica Neue',Arial,sans-serif" font-size="46" fill="#8b8b90">We help you build</text>
<text x="540" y="1415" text-anchor="middle" font-family="'JetBrains Mono','DejaVu Sans Mono',monospace" font-size="26" fill="#8b8b90" letter-spacing="14">GRUPO <tspan fill="#E0B030">X</tspan> · TEAM <tspan fill="#E0B030">X</tspan></text>
</svg>