<svg xmlns="http://www.w3.org/2000/svg" viewBox="0 0 1080 1920"><rect width="1080" height="1920" fill="#000"/><circle cx="242" cy="1791" r="1" fill="#fff" opacity="0.21"/><circle cx="915" cy="1372" r="1.3" fill="#fff" opacity="0.51"/><circle cx="1001" cy="931" r="1" fill="#fff" opacity="0.60"/><circle cx="579" cy="1462" r="1.3" fill="#fff" opacity="0.49"/><circle cx="1067" cy="339" r="1.3" fill="#fff" opacity="0.65"/><circle cx="109" cy="1230" r="1" fill="#fff" opacity="0.35"/><circle cx="49" cy="1437" r="1.3" fill="#fff" opacity="0.51"/><circle cx="95" cy="573" r="1.3" fill="#fff" opacity="0.49"/><circle cx="912" cy="1245" r="0.8" fill="#fff" opacity="0.63"/><circle cx="620" cy="1276" r="0.8" fill="#fff" opacity="0.59"/><circle cx="489" cy="1030" r="0.8" fill="#fff" opacity="0.37"/><circle cx="734" cy="1877" r="1.3" fill="#fff" opacity="0.35"/><circle cx="746" cy="1700" r="0.8" fill="#fff" opacity="0.66"/><circle cx="1044" cy="742" r="1" fill="#fff" opacity="0.46"/><circle cx="735" cy="1630" r="1" fill="#fff" opacity="0.38"/><circle cx="581" cy="925" r="0.8" fill="#fff" opacity="0.32"/><circle cx="510" cy="1012" r="1" fill="#fff" opacity="0.32"/><circle cx="710" cy="645" r="0.8" fill="#fff" opacity="0.39"/><circle cx="28" cy="1744" r="1" fill="#fff" opacity="0.50"/><circle cx="740" cy="27" r="1" fill="#fff" opacity="0.60"/><circle cx="81" cy="1083" r="0.8" fill="#fff" opacity="0.60"/><circle cx="517" cy="566" r="1" fill="#fff" opacity="0.66"/><circle cx="575" cy="689" r="1.3" fill="#fff" opacity="0.25"/><circle cx="313" cy="572" r="1.3" fill="#fff" opacity="0.56"/><circle cx="988" cy="312" r="0.8" fill="#fff" opacity="0.32"/><circle cx="656" cy="1607" r="1.3" fill="#fff" opacity="0.36"/><circle cx="767" cy="702" r="0.8" fill="#fff" opacity="0.26"/><circle cx="373" cy="423" r="1.3" fill="#fff" opacity="0.22"/><circle cx="901" cy="491" r="1" fill="#fff" opacity="0.41"/><circle cx="781" cy="1357" r="1.3" fill="#fff" opacity="0.31"/><circle cx="268" cy="58" r="0.8" fill="#fff" opacity="0.33"/><circle cx="871" cy="438" r="0.8" fill="#fff" opacity="0.59"/><circle cx="699" cy="1182" r="1.3" fill="#fff" opacity="0.50"/><circle cx="600" cy="589" r="1.3" fill="#fff" opacity="0.58"/><circle cx="181" cy="918" r="1.3" fill="#fff" opacity="0.56"/><circle cx="626" cy="292" r="1.3" fill="#fff" opacity="0.53"/><circle cx="799" cy="898" r="0.8" fill="#fff" opacity="0.31"/><circle cx="220" cy="840" r="1.3" fill="#fff" opacity="0.29"/><circle cx="449" cy="1496" r="1" fill="#fff" opacity="0.35"/><circle cx="172" cy="1707" r="0.8" fill="#fff" opacity="0.46"/><circle cx="615" cy="1249" r="0.8" fill="#fff" opacity="0.55"/><circle cx="1017" cy="1643" r="1.3" fill="#fff" opacity="0.44"/><circle cx="226" cy="664" r="0.8" fill="#fff" opacity="0.59"/><circle cx="239" cy="1280" r="1" fill="#fff" opacity="0.64"/><circle cx="33" cy="1740" r="1" fill="#fff" opacity="0.32"/><circle cx="828" cy="906" r="0.8" fill="#fff" opacity="0.21"/><circle cx="287" cy="1292" r="0.8" fill="#fff" opacity="0.23"/><circle cx="279" cy="221" r="1" fill="#fff" opacity="0.63"/><circle cx="129" cy="1507" r="0.8" fill="#fff" opacity="0.59"/><circle cx="1047" cy="452" r="1.3" fill="#fff" opacity="0.39"/><circle cx="915" cy="1725" r="0.8" fill="#fff" opacity="0.43"/><circle cx="959" cy="642" r="0.8" fill="#fff" opacity="0.65"/><circle cx="911" cy="931" r="1" fill="#fff" opacity="0.67"/><circle cx="34" cy="1641" r="1.3" fill="#fff" opacity="0.47"/><circle cx="599" cy="219" r="1" fill="#fff" opacity="0.44"/><circle cx="1000" cy="1734" r="1.3" fill="#fff" opacity="0.56"/><circle cx="367" cy="64" r="1" fill="#fff" opacity="0.46"/><circle cx="450" cy="470" r="1.3" fill="#fff" opacity="0.44"/><circle cx="672" cy="1422" r="0.8" fill="#fff" opacity="0.23"/><circle cx="189" cy="269" r="1.3" fill="#fff" opacity="0.59"/><circle cx="919" cy="1206" r="0.8" fill="#fff" opacity="0.32"/><circle cx="335" cy="1130" r="1.3" fill="#fff" opacity="0.27"/><circle cx="35" cy="705" r="1" fill="#fff" opacity="0.28"/><circle cx="457" cy="1250" r="0.8" fill="#fff" opacity="0.43"/><circle cx="381" cy="296" r="1" fill="#fff" opacity="0.66"/><circle cx="954" cy="834" r="1.3" fill="#fff" opacity="0.45"/><circle cx="1029" cy="1735" r="0.8" fill="#fff" opacity="0.49"/><circle cx="800" cy="1132" r="1" fill="#fff" opacity="0.67"/><circle cx="1054" cy="39" r="1.3" fill="#fff" opacity="0.33"/><circle cx="189" cy="576" r="0.8" fill="#fff" opacity="0.39"/><circle cx="683" cy="51" r="1" fill="#fff" opacity="0.64"/><circle cx="574" cy="1619" r="0.8" fill="#fff" opacity="0.40"/><circle cx="971" cy="1522" r="1.3" fill="#fff" opacity="0.50"/><circle cx="592" cy="1153" r="1.3" fill="#fff" opacity="0.62"/><circle cx="953" cy="1772" r="0.8" fill="#fff" opacity="0.46"/><circle cx="989" cy="1316" r="1.3" fill="#fff" opacity="0.24"/><circle cx="353" cy="540" r="1.3" fill="#fff" opacity="0.57"/><circle cx="549" cy="644" r="0.8" fill="#fff" opacity="0.51"/><circle cx="525" cy="1218" r="1.3" fill="#fff" opacity="0.30"/><circle cx="309" cy="1534" r="0.8" fill="#fff" opacity="0.20"/><circle cx="810" cy="432" r="1" fill="#fff" opacity="0.44"/><circle cx="331" cy="1700" r="1.3" fill="#fff" opacity="0.44"/><circle cx="430" cy="1496" r="1.3" fill="#fff" opacity="0.37"/><circle cx="720" cy="1124" r="0.8" fill="#fff" opacity="0.27"/><circle cx="974" cy="493" r="1" fill="#fff" opacity="0.43"/><circle cx="524" cy="1488" r="0.8" fill="#fff" opacity="0.61"/><circle cx="627" cy="17" r="1" fill="#fff" opacity="0.50"/><circle cx="1027" cy="312" r="1.3" fill="#fff" opacity="0.39"/><circle cx="896" cy="435" r="1" fill="#fff" opacity="0.22"/><circle cx="451" cy="493" r="0.8" fill="#fff" opacity="0.48"/><circle cx="658" cy="18" r="0.8" fill="#fff" opacity="0.40"/><circle cx="620" cy="376" r="0.8" fill="#fff" opacity="0.38"/><circle cx="1004" cy="1174" r="1.3" fill="#fff" opacity="0.33"/><circle cx="114" cy="474" r="0.8" fill="#fff" opacity="0.47"/><circle cx="598" cy="1121" r="1.3" fill="#fff" opacity="0.45"/><circle cx="1032" cy="938" r="1.3" fill="#fff" opacity="0.56"/><circle cx="443" cy="90" r="1" fill="#fff" opacity="0.40"/><circle cx="469" cy="1919" r="1" fill="#fff" opacity="0.69"/><circle cx="1021" cy="277" r="1" fill="#fff" opacity="0.49"/><circle cx="292" cy="1718" r="1.3" fill="#fff" opacity="0.41"/><circle cx="550" cy="251" r="1" fill="#fff" opacity="0.40"/><circle cx="545" cy="898" r="0.8" fill="#fff" opacity="0.41"/><circle cx="793" cy="210" r="0.8" fill="#fff" opacity="0.62"/><circle cx="1075" cy="1280" r="0.8" fill="#fff" opacity="0.38"/><circle cx="159" cy="391" r="0.8" fill="#fff" opacity="0.46"/><circle cx="208" cy="1619" r="0.8" fill="#fff" opacity="0.59"/><circle cx="139" cy="197" r="0.8" fill="#fff" opacity="0.65"/><circle cx="950" cy="897" r="1.3" fill="#fff" opacity="0.62"/><circle cx="776" cy="719" r="1.3" fill="#fff" opacity="0.53"/><circle cx="996" cy="1800" r="1" fill="#fff" opacity="0.39"/><circle cx="442" cy="1240" r="1" fill="#fff" opacity="0.60"/><circle cx="568" cy="1631" r="1" fill="#fff" opacity="0.54"/><circle cx="950" cy="1202" r="1" fill="#fff" opacity="0.45"/><circle cx="259" cy="863" r="0.8" fill="#fff" opacity="0.31"/><circle cx="1057" cy="1516" r="1" fill="#fff" opacity="0.51"/><circle cx="213" cy="872" r="1.3" fill="#fff" opacity="0.33"/><circle cx="104" cy="858" r="1" fill="#fff" opacity="0.62"/><circle cx="1042" cy="992" r="1" fill="#fff" opacity="0.36"/><circle cx="898" cy="399" r="1.3" fill="#fff" opacity="0.52"/><circle cx="932" cy="1477" r="0.8" fill="#fff" opacity="0.58"/><circle cx="601" cy="1139" r="0.8" fill="#fff" opacity="0.33"/><circle cx="867" cy="1017" r="0.8" fill="#fff" opacity="0.59"/><circle cx="491" cy="1066" r="1" fill="#fff" opacity="0.69"/><circle cx="706" cy="946" r="0.8" fill="#fff" opacity="0.53"/><circle cx="721" cy="230" r="1" fill="#fff" opacity="0.41"/><circle cx="262" cy="1657" r="1.3" fill="#fff" opacity="0.61"/><circle cx="347" cy="1713" r="1.3" fill="#fff" opacity="0.36"/><circle cx="342" cy="934" r="1.3" fill="#fff" opacity="0.34"/><circle cx="219" cy="1795" r="1.3" fill="#fff" opacity="0.42"/><circle cx="641" cy="1002" r="1" fill="#fff" opacity="0.57"/><circle cx="838" cy="1255" r="1" fill="#fff" opacity="0.53"/><circle cx="722" cy="837" r="1.3" fill="#fff" opacity="0.51"/><circle cx="731" cy="1543" r="1.3" fill="#fff" opacity="0.68"/><circle cx="830" cy="636" r="0.8" fill="#fff" opacity="0.66"/><circle cx="169" cy="556" r="1.3" fill="#fff" opacity="0.65"/><circle cx="910" cy="994" r="0.8" fill="#fff" opacity="0.48"/><circle cx="1039" cy="615" r="1.3" fill="#fff" opacity="0.58"/><circle cx="180" cy="487" r="1.3" fill="#fff" opacity="0.24"/><circle cx="643" cy="766" r="1" fill="#fff" opacity="0.50"/><circle cx="954" cy="354" r="1" fill="#fff" opacity="0.23"/><g transform="translate(390.0 410.0) scale(3.000)">
<defs><linearGradient id="g1" gradientUnits="userSpaceOnUse" x1="8" y1="15" x2="92" y2="85"><stop offset="0" stop-color="#4E9A6B"/><stop offset="1" stop-color="#4C82CF"/></linearGradient>
<linearGradient id="g2" gradientUnits="userSpaceOnUse" x1="92" y1="15" x2="8" y2="85"><stop offset="0" stop-color="#4C82CF"/><stop offset="1" stop-color="#4E9A6B"/></linearGradient></defs>
<g fill="none" stroke-width="4.6" stroke-linejoin="round" stroke-linecap="round">
<polygon points="66,15 92,15 34,85 8,85" stroke="url(#g2)"/>
<polygon points="8,15 34,15 92,85 66,85" stroke="url(#g1)"/>
<line x1="62.4" y1="20.2" x2="46" y2="40" stroke="#000" stroke-width="7.4" stroke-linecap="butt"/>
<line x1="46.5" y1="30.1" x2="53.5" y2="38.5" stroke="#000" stroke-width="8.6" stroke-linecap="butt"/><line x1="46.5" y1="30.1" x2="53.5" y2="38.5" stroke="url(#g1)" stroke-width="4.6" stroke-linecap="butt"/>
</g><circle cx="55" cy="28" r="3" fill="#4C82CF"/></g><defs><linearGradient id="wg" x1="0" y1="0" x2="1" y2="1"><stop offset="0" stop-color="#4E9A6B"/><stop offset="1" stop-color="#4C82CF"/></linearGradient></defs><text x="540" y="1010" text-anchor="middle" font-family="'Montserrat','Inter','Helvetica Neue',Arial,sans-serif" font-weight="700" font-size="100" letter-spacing="9.0" fill="#fff" >PRODUAV<tspan fill="url(#wg)">X</tspan></text><text x="540" y="1200" text-anchor="middle" font-family="'Inter Tight','Inter','Helvetica Neue',Arial,sans-serif" font-weight="300" font-size="64" fill="#f2f2f2" letter-spacing="-2">Te ayudamos a producir</text><text x="540" y="1290" text-anchor="middle" font-family="'Inter Tight','Inter','Helvetica Neue',Arial,sans-serif" font-weight="300" font-size="46" fill="#8b8b90" letter-spacing="0">We help you produce</text><text x="540" y="1415" text-anchor="middle" font-family="'JetBrains Mono','DejaVu Sans Mono',monospace" font-weight="400" font-size="26" fill="#8b8b90" letter-spacing="14">GRUPO X · TEAM X</text></svg>