<svg xmlns="http://www.w3.org/2000/svg" viewBox="0 0 200 200" role="img" aria-label="ProduAVX variante 6"><defs>
<radialGradient id="bg" cx=".5" cy=".62" r=".72"><stop offset="0" stop-color="#5a0f12"/><stop offset=".6" stop-color="#1b0709"/><stop offset="1" stop-color="#0a0306"/></radialGradient>
<radialGradient id="bgc" cx=".5" cy=".62" r=".72"><stop offset="0" stop-color="#1c1a52"/><stop offset=".6" stop-color="#0d0d26"/><stop offset="1" stop-color="#07070d"/></radialGradient>
<linearGradient id="fl" gradientUnits="userSpaceOnUse" x1="0" y1="42" x2="0" y2="150"><stop offset="0" stop-color="#ffd166"/><stop offset=".45" stop-color="#ff8a1f"/><stop offset="1" stop-color="#d62718"/></linearGradient>
<linearGradient id="fc" gradientUnits="userSpaceOnUse" x1="20" y1="42" x2="180" y2="150"><stop offset="0" stop-color="#46e0ff"/><stop offset="1" stop-color="#9a6bff"/></linearGradient>
<linearGradient id="fire" gradientUnits="userSpaceOnUse" x1="0" y1="4" x2="0" y2="48"><stop offset="0" stop-color="#ffe9a8"/><stop offset=".5" stop-color="#ffd166"/><stop offset="1" stop-color="#ff8a1f"/></linearGradient>
<linearGradient id="rg" x1="0" y1="0" x2="1" y2="1"><stop offset="0" stop-color="#ff8a1f"/><stop offset="1" stop-color="#ffd166"/></linearGradient></defs><circle cx="100" cy="100" r="98" fill="#0a0306"/><circle cx="100" cy="100" r="95" fill="none" stroke="url(#rg)" stroke-width="5"/><circle cx="100" cy="100" r="84" fill="url(#bg)" stroke="#3a1410" stroke-width="3"/><line x1="100" y1="100" x2="180.0" y2="100.0" stroke="#3a1410" stroke-width="2.2"/><line x1="100" y1="100" x2="140.0" y2="169.3" stroke="#3a1410" stroke-width="2.2"/><line x1="100" y1="100" x2="60.0" y2="169.3" stroke="#3a1410" stroke-width="2.2"/><line x1="100" y1="100" x2="20.0" y2="100.0" stroke="#3a1410" stroke-width="2.2"/><line x1="100" y1="100" x2="60.0" y2="30.7" stroke="#3a1410" stroke-width="2.2"/><line x1="100" y1="100" x2="140.0" y2="30.7" stroke="#3a1410" stroke-width="2.2"/><circle cx="100" cy="100" r="60" fill="url(#bg)" stroke="#3a1410" stroke-width="2"/><g transform="translate(100 108) scale(0.62) translate(-101 -96)"><path d="M112 44C110 28 128 22 122 4C142 14 148 32 138 44Z" fill="url(#fire)" stroke="#1a0404" stroke-width="3.4" stroke-linejoin="round" stroke-linecap="round" /><path d="M162 44C160 30 176 24 170 6C190 16 196 32 188 44Z" fill="url(#fire)" stroke="#1a0404" stroke-width="3.4" stroke-linejoin="round" stroke-linecap="round" /><path d="M139 50C139 38 150 34 147 18C160 26 164 40 161 50Z" fill="url(#fire)" stroke="#1a0404" stroke-width="3.4" stroke-linejoin="round" stroke-linecap="round" /><path d="M64 44C58 32 66 22 80 24C78 32 74 38 72 44Z" fill="#3fae49" stroke="#1a0404" stroke-width="3.4" stroke-linejoin="round" stroke-linecap="round" /><path d="M84 42L118 150L123 154.5L89 46.5Z" fill="#6e0e10" stroke="#1a0404" stroke-width="3.4" stroke-linejoin="round"/><path d="M118 150L92 150L97 154.5L123 154.5Z" fill="#6e0e10" stroke="#1a0404" stroke-width="3.4" stroke-linejoin="round"/><path d="M85 126L47 126L52 130.5L90 130.5Z" fill="#6e0e10" stroke="#1a0404" stroke-width="3.4" stroke-linejoin="round"/><path d="M47 126L40 150L45 154.5L52 130.5Z" fill="#6e0e10" stroke="#1a0404" stroke-width="3.4" stroke-linejoin="round"/><path d="M40 150L14 150L19 154.5L45 154.5Z" fill="#6e0e10" stroke="#1a0404" stroke-width="3.4" stroke-linejoin="round"/><path d="M138 42L150 66L155 70.5L143 46.5Z" fill="#6e0e10" stroke="#1a0404" stroke-width="3.4" stroke-linejoin="round"/><path d="M188 42L164 96L169 100.5L193 46.5Z" fill="#6e0e10" stroke="#1a0404" stroke-width="3.4" stroke-linejoin="round"/><path d="M164 96L188 150L193 154.5L169 100.5Z" fill="#6e0e10" stroke="#1a0404" stroke-width="3.4" stroke-linejoin="round"/><path d="M188 150L162 150L167 154.5L193 154.5Z" fill="#6e0e10" stroke="#1a0404" stroke-width="3.4" stroke-linejoin="round"/><path d="M150 126L138 150L143 154.5L155 130.5Z" fill="#6e0e10" stroke="#1a0404" stroke-width="3.4" stroke-linejoin="round"/><path d="M138 150L112 150L117 154.5L143 154.5Z" fill="#6e0e10" stroke="#1a0404" stroke-width="3.4" stroke-linejoin="round"/><path d="M14 150L48 42L84 42L118 150L92 150L85 126L47 126L40 150Z M55 104L77 104L66 68Z" fill="url(#fl)" stroke="#1a0404" stroke-width="3.4" stroke-linejoin="round" stroke-linecap="round" fill-rule="evenodd"/><path d="M112 42L138 42L150 66L162 42L188 42L164 96L188 150L162 150L150 126L138 150L112 150L136 96Z" fill="url(#fl)" stroke="#1a0404" stroke-width="3.4" stroke-linejoin="round" stroke-linecap="round" /></g><circle cx="160" cy="40" r="6" fill="#d62718" stroke="#1a0404" stroke-width="2"/></svg>
