<svg xmlns="http://www.w3.org/2000/svg" viewBox="0 0 1640 624"><defs><linearGradient id="xg" x1="0" y1="0" x2="1" y2="1"><stop offset="0" stop-color="#E0B030"/><stop offset="1" stop-color="#C8473D"/></linearGradient><clipPath id="lh"><rect x="-20" y="50" width="140" height="70"/></clipPath></defs><rect width="1640" height="624" fill="#000"/><g stroke="#fff" stroke-opacity=".07" stroke-width="1"><line x1="0" y1="0" x2="0" y2="624"/><line x1="60" y1="0" x2="60" y2="624"/><line x1="120" y1="0" x2="120" y2="624"/><line x1="180" y1="0" x2="180" y2="624"/><line x1="240" y1="0" x2="240" y2="624"/><line x1="300" y1="0" x2="300" y2="624"/><line x1="360" y1="0" x2="360" y2="624"/><line x1="420" y1="0" x2="420" y2="624"/><line x1="480" y1="0" x2="480" y2="624"/><line x1="540" y1="0" x2="540" y2="624"/><line x1="600" y1="0" x2="600" y2="624"/><line x1="660" y1="0" x2="660" y2="624"/><line x1="720" y1="0" x2="720" y2="624"/><line x1="780" y1="0" x2="780" y2="624"/><line x1="840" y1="0" x2="840" y2="624"/><line x1="900" y1="0" x2="900" y2="624"/><line x1="960" y1="0" x2="960" y2="624"/><line x1="1020" y1="0" x2="1020" y2="624"/><line x1="1080" y1="0" x2="1080" y2="624"/><line x1="1140" y1="0" x2="1140" y2="624"/><line x1="1200" y1="0" x2="1200" y2="624"/><line x1="1260" y1="0" x2="1260" y2="624"/><line x1="1320" y1="0" x2="1320" y2="624"/><line x1="1380" y1="0" x2="1380" y2="624"/><line x1="1440" y1="0" x2="1440" y2="624"/><line x1="1500" y1="0" x2="1500" y2="624"/><line x1="1560" y1="0" x2="1560" y2="624"/><line x1="1620" y1="0" x2="1620" y2="624"/><line x1="0" y1="0" x2="1640" y2="0"/><line x1="0" y1="60" x2="1640" y2="60"/><line x1="0" y1="120" x2="1640" y2="120"/><line x1="0" y1="180" x2="1640" y2="180"/><line x1="0" y1="240" x2="1640" y2="240"/><line x1="0" y1="300" x2="1640" y2="300"/><line x1="0" y1="360" x2="1640" y2="360"/><line x1="0" y1="420" x2="1640" y2="420"/><line x1="0" y1="480" x2="1640" y2="480"/><line x1="0" y1="540" x2="1640" y2="540"/><line x1="0" y1="600" x2="1640" y2="600"/></g><circle cx="344" cy="240" r="0.8" fill="#fff" opacity="0.31"/><circle cx="1195" cy="3" r="1" fill="#fff" opacity="0.54"/><circle cx="1165" cy="598" r="0.8" fill="#fff" opacity="0.35"/><circle cx="1448" cy="46" r="0.8" fill="#fff" opacity="0.25"/><circle cx="570" cy="493" r="0.8" fill="#fff" opacity="0.63"/><circle cx="842" cy="187" r="1.3" fill="#fff" opacity="0.23"/><circle cx="707" cy="361" r="1.3" fill="#fff" opacity="0.20"/><circle cx="1163" cy="28" r="0.8" fill="#fff" opacity="0.66"/><circle cx="1474" cy="300" r="1.3" fill="#fff" opacity="0.39"/><circle cx="514" cy="505" r="1" fill="#fff" opacity="0.39"/><circle cx="576" cy="85" r="1" fill="#fff" opacity="0.24"/><circle cx="488" cy="424" r="1" fill="#fff" opacity="0.32"/><circle cx="1134" cy="436" r="0.8" fill="#fff" opacity="0.40"/><circle cx="1548" cy="543" r="1.3" fill="#fff" opacity="0.24"/><circle cx="56" cy="451" r="1.3" fill="#fff" opacity="0.41"/><circle cx="1454" cy="360" r="1.3" fill="#fff" opacity="0.39"/><circle cx="208" cy="511" r="1.3" fill="#fff" opacity="0.51"/><circle cx="193" cy="275" r="0.8" fill="#fff" opacity="0.46"/><circle cx="1317" cy="142" r="1.3" fill="#fff" opacity="0.32"/><circle cx="889" cy="385" r="1" fill="#fff" opacity="0.37"/><circle cx="1476" cy="581" r="1" fill="#fff" opacity="0.63"/><circle cx="1429" cy="522" r="0.8" fill="#fff" opacity="0.63"/><circle cx="957" cy="112" r="0.8" fill="#fff" opacity="0.38"/><circle cx="468" cy="25" r="0.8" fill="#fff" opacity="0.48"/><circle cx="1435" cy="30" r="0.8" fill="#fff" opacity="0.53"/><circle cx="190" cy="66" r="1" fill="#fff" opacity="0.70"/><circle cx="910" cy="517" r="1" fill="#fff" opacity="0.53"/><circle cx="206" cy="115" r="1.3" fill="#fff" opacity="0.23"/><circle cx="142" cy="41" r="0.8" fill="#fff" opacity="0.47"/><circle cx="1314" cy="129" r="0.8" fill="#fff" opacity="0.54"/><circle cx="206" cy="522" r="1.3" fill="#fff" opacity="0.31"/><circle cx="1417" cy="126" r="1" fill="#fff" opacity="0.49"/><circle cx="734" cy="489" r="0.8" fill="#fff" opacity="0.62"/><circle cx="786" cy="288" r="0.8" fill="#fff" opacity="0.50"/><circle cx="1522" cy="549" r="1.3" fill="#fff" opacity="0.24"/><circle cx="1352" cy="598" r="0.8" fill="#fff" opacity="0.46"/><circle cx="1115" cy="221" r="0.8" fill="#fff" opacity="0.38"/><circle cx="372" cy="615" r="1.3" fill="#fff" opacity="0.44"/><circle cx="98" cy="84" r="1.3" fill="#fff" opacity="0.22"/><circle cx="1026" cy="169" r="1" fill="#fff" opacity="0.48"/><circle cx="141" cy="478" r="0.8" fill="#fff" opacity="0.65"/><circle cx="1077" cy="81" r="1" fill="#fff" opacity="0.59"/><circle cx="405" cy="202" r="1" fill="#fff" opacity="0.65"/><circle cx="842" cy="75" r="0.8" fill="#fff" opacity="0.62"/><circle cx="1608" cy="126" r="1.3" fill="#fff" opacity="0.51"/><circle cx="1477" cy="106" r="1" fill="#fff" opacity="0.20"/><circle cx="27" cy="12" r="1" fill="#fff" opacity="0.53"/><circle cx="1206" cy="129" r="0.8" fill="#fff" opacity="0.43"/><circle cx="1002" cy="456" r="1" fill="#fff" opacity="0.38"/><circle cx="730" cy="215" r="0.8" fill="#fff" opacity="0.69"/><circle cx="809" cy="164" r="0.8" fill="#fff" opacity="0.64"/><circle cx="1422" cy="295" r="1" fill="#fff" opacity="0.21"/><circle cx="1597" cy="562" r="1" fill="#fff" opacity="0.49"/><circle cx="7" cy="596" r="1.3" fill="#fff" opacity="0.48"/><circle cx="576" cy="417" r="0.8" fill="#fff" opacity="0.48"/><circle cx="446" cy="352" r="1" fill="#fff" opacity="0.70"/><circle cx="581" cy="475" r="1.3" fill="#fff" opacity="0.26"/><circle cx="1506" cy="106" r="1" fill="#fff" opacity="0.30"/><circle cx="389" cy="285" r="0.8" fill="#fff" opacity="0.27"/><circle cx="1004" cy="54" r="0.8" fill="#fff" opacity="0.45"/><circle cx="590" cy="446" r="1" fill="#fff" opacity="0.65"/><circle cx="789" cy="519" r="0.8" fill="#fff" opacity="0.62"/><circle cx="1215" cy="269" r="0.8" fill="#fff" opacity="0.64"/><circle cx="1327" cy="147" r="1" fill="#fff" opacity="0.35"/><circle cx="1060" cy="417" r="1.3" fill="#fff" opacity="0.36"/><circle cx="107" cy="186" r="0.8" fill="#fff" opacity="0.25"/><circle cx="256" cy="144" r="1.3" fill="#fff" opacity="0.67"/><circle cx="1357" cy="466" r="1.3" fill="#fff" opacity="0.33"/><circle cx="491" cy="36" r="0.8" fill="#fff" opacity="0.26"/><circle cx="378" cy="594" r="1.3" fill="#fff" opacity="0.45"/><g transform="translate(455.0 207.0) scale(2.100)">
<line x1="-8" y1="-12" x2="108" y2="114" stroke="#fff" stroke-opacity=".22" stroke-width="1.6" stroke-linecap="round"/>
<g transform="translate(7 0) skewX(-8)" fill="none" stroke="url(#xg)" stroke-width="6" stroke-linejoin="round">
<polygon points="12,10 36,10 88,90 64,90"/>
<polygon points="64,10 88,10 36,90 12,90" fill="#000"/>
<g clip-path="url(#lh)"><polygon points="12,10 36,10 88,90 64,90" fill="#000"/></g>
</g>
<circle cx="97" cy="8" r="4.2" fill="#C8473D"/></g><text x="680" y="330" text-anchor="start" font-family="'Archivo Black','Inter Tight','Helvetica Neue',Arial,sans-serif" font-weight="900" font-size="104" letter-spacing="-3" ><tspan fill="#8b8b90">Constru</tspan><tspan fill="#f2f2f2">AV</tspan><tspan fill="url(#xg)">X</tspan></text><text x="684" y="392" text-anchor="start" font-family="'JetBrains Mono','DejaVu Sans Mono',monospace" font-weight="400" font-size="22" fill="#8b8b90" letter-spacing="8">GRUPO X · TEAM X</text><line x1="684" y1="420" x2="1060" y2="420" stroke="#E0B030" stroke-width="3"/><line x1="684" y1="406" x2="684" y2="434" stroke="#E0B030" stroke-width="3"/><text x="684" y="466" text-anchor="start" font-family="'Inter Tight','Inter','Helvetica Neue',Arial,sans-serif" font-weight="300" font-size="26" fill="#8b8b90" letter-spacing="-1">Te ayudamos a construir · We help you build</text></svg>