<svg xmlns="http://www.w3.org/2000/svg" viewBox="0 0 1640 624"><rect width="1640" height="624" fill="#000"/><g stroke="#fff" stroke-opacity=".07" stroke-width="1"><line x1="0" y1="0" x2="0" y2="624"/><line x1="60" y1="0" x2="60" y2="624"/><line x1="120" y1="0" x2="120" y2="624"/><line x1="180" y1="0" x2="180" y2="624"/><line x1="240" y1="0" x2="240" y2="624"/><line x1="300" y1="0" x2="300" y2="624"/><line x1="360" y1="0" x2="360" y2="624"/><line x1="420" y1="0" x2="420" y2="624"/><line x1="480" y1="0" x2="480" y2="624"/><line x1="540" y1="0" x2="540" y2="624"/><line x1="600" y1="0" x2="600" y2="624"/><line x1="660" y1="0" x2="660" y2="624"/><line x1="720" y1="0" x2="720" y2="624"/><line x1="780" y1="0" x2="780" y2="624"/><line x1="840" y1="0" x2="840" y2="624"/><line x1="900" y1="0" x2="900" y2="624"/><line x1="960" y1="0" x2="960" y2="624"/><line x1="1020" y1="0" x2="1020" y2="624"/><line x1="1080" y1="0" x2="1080" y2="624"/><line x1="1140" y1="0" x2="1140" y2="624"/><line x1="1200" y1="0" x2="1200" y2="624"/><line x1="1260" y1="0" x2="1260" y2="624"/><line x1="1320" y1="0" x2="1320" y2="624"/><line x1="1380" y1="0" x2="1380" y2="624"/><line x1="1440" y1="0" x2="1440" y2="624"/><line x1="1500" y1="0" x2="1500" y2="624"/><line x1="1560" y1="0" x2="1560" y2="624"/><line x1="1620" y1="0" x2="1620" y2="624"/><line x1="0" y1="0" x2="1640" y2="0"/><line x1="0" y1="60" x2="1640" y2="60"/><line x1="0" y1="120" x2="1640" y2="120"/><line x1="0" y1="180" x2="1640" y2="180"/><line x1="0" y1="240" x2="1640" y2="240"/><line x1="0" y1="300" x2="1640" y2="300"/><line x1="0" y1="360" x2="1640" y2="360"/><line x1="0" y1="420" x2="1640" y2="420"/><line x1="0" y1="480" x2="1640" y2="480"/><line x1="0" y1="540" x2="1640" y2="540"/><line x1="0" y1="600" x2="1640" y2="600"/></g><circle cx="670" cy="338" r="0.8" fill="#fff" opacity="0.29"/><circle cx="369" cy="18" r="0.8" fill="#fff" opacity="0.48"/><circle cx="164" cy="483" r="1.3" fill="#fff" opacity="0.69"/><circle cx="1137" cy="236" r="1" fill="#fff" opacity="0.58"/><circle cx="1099" cy="224" r="1" fill="#fff" opacity="0.62"/><circle cx="1012" cy="70" r="0.8" fill="#fff" opacity="0.49"/><circle cx="443" cy="197" r="1.3" fill="#fff" opacity="0.61"/><circle cx="475" cy="215" r="0.8" fill="#fff" opacity="0.44"/><circle cx="1504" cy="118" r="1" fill="#fff" opacity="0.57"/><circle cx="1274" cy="27" r="1.3" fill="#fff" opacity="0.42"/><circle cx="62" cy="445" r="1.3" fill="#fff" opacity="0.62"/><circle cx="1331" cy="231" r="1" fill="#fff" opacity="0.52"/><circle cx="968" cy="337" r="0.8" fill="#fff" opacity="0.44"/><circle cx="1629" cy="460" r="1" fill="#fff" opacity="0.51"/><circle cx="1596" cy="460" r="1" fill="#fff" opacity="0.28"/><circle cx="366" cy="9" r="1.3" fill="#fff" opacity="0.52"/><circle cx="891" cy="621" r="1" fill="#fff" opacity="0.48"/><circle cx="663" cy="225" r="0.8" fill="#fff" opacity="0.62"/><circle cx="995" cy="37" r="1" fill="#fff" opacity="0.58"/><circle cx="1108" cy="296" r="0.8" fill="#fff" opacity="0.29"/><circle cx="1054" cy="521" r="1.3" fill="#fff" opacity="0.52"/><circle cx="1511" cy="39" r="0.8" fill="#fff" opacity="0.20"/><circle cx="449" cy="429" r="1.3" fill="#fff" opacity="0.54"/><circle cx="1407" cy="611" r="0.8" fill="#fff" opacity="0.34"/><circle cx="1576" cy="164" r="0.8" fill="#fff" opacity="0.70"/><circle cx="1232" cy="492" r="1" fill="#fff" opacity="0.47"/><circle cx="800" cy="177" r="1" fill="#fff" opacity="0.40"/><circle cx="496" cy="551" r="1" fill="#fff" opacity="0.24"/><circle cx="414" cy="589" r="1.3" fill="#fff" opacity="0.27"/><circle cx="1518" cy="247" r="1" fill="#fff" opacity="0.66"/><circle cx="138" cy="563" r="0.8" fill="#fff" opacity="0.34"/><circle cx="875" cy="515" r="0.8" fill="#fff" opacity="0.22"/><circle cx="384" cy="304" r="1.3" fill="#fff" opacity="0.34"/><circle cx="676" cy="87" r="1" fill="#fff" opacity="0.33"/><circle cx="380" cy="373" r="1.3" fill="#fff" opacity="0.26"/><circle cx="1586" cy="570" r="0.8" fill="#fff" opacity="0.65"/><circle cx="130" cy="569" r="1.3" fill="#fff" opacity="0.54"/><circle cx="1316" cy="238" r="1.3" fill="#fff" opacity="0.57"/><circle cx="1126" cy="280" r="0.8" fill="#fff" opacity="0.28"/><circle cx="242" cy="622" r="1" fill="#fff" opacity="0.36"/><circle cx="879" cy="132" r="0.8" fill="#fff" opacity="0.28"/><circle cx="892" cy="48" r="0.8" fill="#fff" opacity="0.40"/><circle cx="822" cy="398" r="1" fill="#fff" opacity="0.40"/><circle cx="461" cy="507" r="0.8" fill="#fff" opacity="0.54"/><circle cx="1130" cy="201" r="1.3" fill="#fff" opacity="0.67"/><circle cx="1604" cy="388" r="1" fill="#fff" opacity="0.21"/><circle cx="1305" cy="73" r="0.8" fill="#fff" opacity="0.28"/><circle cx="284" cy="72" r="0.8" fill="#fff" opacity="0.65"/><circle cx="1145" cy="170" r="1" fill="#fff" opacity="0.61"/><circle cx="407" cy="171" r="0.8" fill="#fff" opacity="0.35"/><circle cx="1268" cy="479" r="0.8" fill="#fff" opacity="0.53"/><circle cx="282" cy="112" r="1" fill="#fff" opacity="0.66"/><circle cx="800" cy="177" r="1" fill="#fff" opacity="0.54"/><circle cx="1440" cy="310" r="1" fill="#fff" opacity="0.44"/><circle cx="184" cy="431" r="1.3" fill="#fff" opacity="0.30"/><circle cx="1372" cy="300" r="1.3" fill="#fff" opacity="0.59"/><circle cx="566" cy="227" r="1" fill="#fff" opacity="0.41"/><circle cx="54" cy="170" r="1.3" fill="#fff" opacity="0.42"/><circle cx="7" cy="501" r="1" fill="#fff" opacity="0.21"/><circle cx="1268" cy="132" r="1.3" fill="#fff" opacity="0.36"/><circle cx="1165" cy="546" r="1" fill="#fff" opacity="0.42"/><circle cx="1553" cy="357" r="0.8" fill="#fff" opacity="0.35"/><circle cx="1070" cy="473" r="1" fill="#fff" opacity="0.62"/><circle cx="15" cy="217" r="0.8" fill="#fff" opacity="0.60"/><circle cx="783" cy="589" r="0.8" fill="#fff" opacity="0.35"/><circle cx="198" cy="275" r="0.8" fill="#fff" opacity="0.65"/><circle cx="871" cy="223" r="0.8" fill="#fff" opacity="0.23"/><circle cx="905" cy="445" r="1" fill="#fff" opacity="0.62"/><circle cx="814" cy="589" r="1" fill="#fff" opacity="0.42"/><circle cx="1419" cy="439" r="1" fill="#fff" opacity="0.22"/><g transform="translate(493.2 212.2) scale(1.995)"><defs><linearGradient id="cg" gradientUnits="userSpaceOnUse" x1="-25" y1="0" x2="50" y2="0"><stop offset="0" stop-color="#E0B030"/><stop offset="1" stop-color="#E0B030"/></linearGradient></defs><g transform="translate(0 0) scale(1)">
<defs><linearGradient id="fg" gradientUnits="userSpaceOnUse" x1="8" y1="0" x2="44" y2="0"><stop offset="0" stop-color="#7d7d7d"/><stop offset="1" stop-color="#fff"/></linearGradient><mask id="fm" maskUnits="userSpaceOnUse" x="-40" y="-10" width="170" height="120"><rect x="-40" y="-10" width="170" height="120" fill="url(#fg)"/></mask><linearGradient id="g1" gradientUnits="userSpaceOnUse" x1="8" y1="15" x2="92" y2="85"><stop offset="0" stop-color="#E0B030"/><stop offset="1" stop-color="#C8473D"/></linearGradient>
<linearGradient id="g2" gradientUnits="userSpaceOnUse" x1="92" y1="15" x2="8" y2="85"><stop offset="0" stop-color="#C8473D"/><stop offset="1" stop-color="#E0B030"/></linearGradient></defs>
<g fill="none" stroke-width="4.6" stroke-linejoin="round" stroke-linecap="round" mask='url(#fm)'>
<polygon points="66,15 92,15 34,85 8,85" stroke="url(#g2)"/>
<polygon points="8,15 34,15 92,85 66,85" stroke="url(#g1)"/>
<line x1="62.4" y1="20.2" x2="46" y2="40" stroke="#000" stroke-width="7.4" stroke-linecap="butt"/>
<line x1="46.5" y1="30.1" x2="53.5" y2="38.5" stroke="#000" stroke-width="8.6" stroke-linecap="butt"/><line x1="46.5" y1="30.1" x2="53.5" y2="38.5" stroke="url(#g1)" stroke-width="4.6" stroke-linecap="butt"/>
</g><circle cx="55" cy="28" r="3" fill="#C8473D"/></g><circle cx="40.3" cy="26.2" r="0.90" fill="url(#cg)" opacity="0.45"/><circle cx="34.1" cy="20.3" r="1.37" fill="url(#cg)" opacity="0.63"/><circle cx="26.7" cy="16.0" r="1.77" fill="url(#cg)" opacity="0.71"/><circle cx="18.4" cy="13.6" r="2.13" fill="url(#cg)" opacity="0.78"/><circle cx="9.8" cy="13.1" r="2.45" fill="url(#cg)" opacity="0.84"/><circle cx="1.4" cy="14.6" r="2.74" fill="url(#cg)" opacity="0.89"/><circle cx="-6.5" cy="18.0" r="2.98" fill="url(#cg)" opacity="0.92"/><circle cx="-13.4" cy="23.1" r="3.18" fill="url(#cg)" opacity="0.95"/><circle cx="-18.9" cy="29.7" r="3.34" fill="url(#cg)" opacity="0.98"/><circle cx="-22.8" cy="37.3" r="3.44" fill="url(#cg)" opacity="0.99"/><circle cx="-24.7" cy="45.7" r="3.49" fill="url(#cg)" opacity="1.00"/><circle cx="-24.7" cy="54.3" r="3.49" fill="url(#cg)" opacity="1.00"/><circle cx="-22.8" cy="62.7" r="3.44" fill="url(#cg)" opacity="0.99"/><circle cx="-18.9" cy="70.3" r="3.34" fill="url(#cg)" opacity="0.98"/><circle cx="-13.4" cy="76.9" r="3.18" fill="url(#cg)" opacity="0.95"/><circle cx="-6.5" cy="82.0" r="2.98" fill="url(#cg)" opacity="0.92"/><circle cx="1.4" cy="85.4" r="2.74" fill="url(#cg)" opacity="0.89"/><circle cx="9.8" cy="86.9" r="2.45" fill="url(#cg)" opacity="0.84"/><circle cx="18.4" cy="86.4" r="2.13" fill="url(#cg)" opacity="0.78"/><circle cx="26.7" cy="84.0" r="1.77" fill="url(#cg)" opacity="0.71"/><circle cx="34.1" cy="79.7" r="1.37" fill="url(#cg)" opacity="0.63"/><circle cx="40.3" cy="73.8" r="0.90" fill="url(#cg)" opacity="0.45"/><circle cx="45.0" cy="29.1" r="1.15" fill="#E0B030" opacity="0.55"/><circle cx="51.5" cy="34.7" r="0.80" fill="#E0B030" opacity="0.40"/><circle cx="58.0" cy="40.3" r="0.60" fill="#E0B030" opacity="0.25"/><circle cx="45.0" cy="70.9" r="1.15" fill="#E0B030" opacity="0.55"/><circle cx="51.5" cy="65.3" r="0.80" fill="#E0B030" opacity="0.40"/><circle cx="58.0" cy="59.7" r="0.60" fill="#E0B030" opacity="0.25"/></g><defs><linearGradient id="wg" x1="0" y1="0" x2="1" y2="1"><stop offset="0" stop-color="#E0B030"/><stop offset="1" stop-color="#C8473D"/></linearGradient></defs><text x="680" y="330" text-anchor="start" font-family="'Montserrat','Inter','Helvetica Neue',Arial,sans-serif" font-weight="700" font-size="104" letter-spacing="9.4" fill="#fff" >CONSTRUAV<tspan fill="url(#wg)">X</tspan></text><text x="684" y="392" text-anchor="start" font-family="'JetBrains Mono','DejaVu Sans Mono',monospace" font-weight="400" font-size="22" fill="#8b8b90" letter-spacing="8">GRUPO X · TEAM X</text><line x1="684" y1="420" x2="1060" y2="420" stroke="#E0B030" stroke-width="3"/><line x1="684" y1="406" x2="684" y2="434" stroke="#E0B030" stroke-width="3"/><text x="684" y="466" text-anchor="start" font-family="'Inter Tight','Inter','Helvetica Neue',Arial,sans-serif" font-weight="300" font-size="26" fill="#8b8b90" letter-spacing="-1">Te ayudamos a construir · We help you build</text></svg>