<svg xmlns="http://www.w3.org/2000/svg" viewBox="0 0 1640 624"><rect width="1640" height="624" fill="#000"/><g stroke="#fff" stroke-opacity=".07" stroke-width="1"><line x1="0" y1="0" x2="0" y2="624"/><line x1="60" y1="0" x2="60" y2="624"/><line x1="120" y1="0" x2="120" y2="624"/><line x1="180" y1="0" x2="180" y2="624"/><line x1="240" y1="0" x2="240" y2="624"/><line x1="300" y1="0" x2="300" y2="624"/><line x1="360" y1="0" x2="360" y2="624"/><line x1="420" y1="0" x2="420" y2="624"/><line x1="480" y1="0" x2="480" y2="624"/><line x1="540" y1="0" x2="540" y2="624"/><line x1="600" y1="0" x2="600" y2="624"/><line x1="660" y1="0" x2="660" y2="624"/><line x1="720" y1="0" x2="720" y2="624"/><line x1="780" y1="0" x2="780" y2="624"/><line x1="840" y1="0" x2="840" y2="624"/><line x1="900" y1="0" x2="900" y2="624"/><line x1="960" y1="0" x2="960" y2="624"/><line x1="1020" y1="0" x2="1020" y2="624"/><line x1="1080" y1="0" x2="1080" y2="624"/><line x1="1140" y1="0" x2="1140" y2="624"/><line x1="1200" y1="0" x2="1200" y2="624"/><line x1="1260" y1="0" x2="1260" y2="624"/><line x1="1320" y1="0" x2="1320" y2="624"/><line x1="1380" y1="0" x2="1380" y2="624"/><line x1="1440" y1="0" x2="1440" y2="624"/><line x1="1500" y1="0" x2="1500" y2="624"/><line x1="1560" y1="0" x2="1560" y2="624"/><line x1="1620" y1="0" x2="1620" y2="624"/><line x1="0" y1="0" x2="1640" y2="0"/><line x1="0" y1="60" x2="1640" y2="60"/><line x1="0" y1="120" x2="1640" y2="120"/><line x1="0" y1="180" x2="1640" y2="180"/><line x1="0" y1="240" x2="1640" y2="240"/><line x1="0" y1="300" x2="1640" y2="300"/><line x1="0" y1="360" x2="1640" y2="360"/><line x1="0" y1="420" x2="1640" y2="420"/><line x1="0" y1="480" x2="1640" y2="480"/><line x1="0" y1="540" x2="1640" y2="540"/><line x1="0" y1="600" x2="1640" y2="600"/></g><circle cx="1064" cy="438" r="1" fill="#fff" opacity="0.30"/><circle cx="107" cy="514" r="1" fill="#fff" opacity="0.33"/><circle cx="1368" cy="251" r="0.8" fill="#fff" opacity="0.65"/><circle cx="806" cy="45" r="1.3" fill="#fff" opacity="0.49"/><circle cx="129" cy="523" r="1" fill="#fff" opacity="0.57"/><circle cx="1078" cy="619" r="0.8" fill="#fff" opacity="0.62"/><circle cx="1338" cy="299" r="0.8" fill="#fff" opacity="0.51"/><circle cx="554" cy="406" r="1.3" fill="#fff" opacity="0.61"/><circle cx="231" cy="609" r="1" fill="#fff" opacity="0.66"/><circle cx="1305" cy="23" r="1.3" fill="#fff" opacity="0.47"/><circle cx="279" cy="442" r="1" fill="#fff" opacity="0.47"/><circle cx="84" cy="609" r="1.3" fill="#fff" opacity="0.21"/><circle cx="1279" cy="216" r="1.3" fill="#fff" opacity="0.49"/><circle cx="107" cy="622" r="1" fill="#fff" opacity="0.38"/><circle cx="592" cy="488" r="0.8" fill="#fff" opacity="0.44"/><circle cx="1441" cy="38" r="0.8" fill="#fff" opacity="0.28"/><circle cx="1254" cy="305" r="0.8" fill="#fff" opacity="0.37"/><circle cx="1253" cy="245" r="1.3" fill="#fff" opacity="0.26"/><circle cx="417" cy="347" r="1.3" fill="#fff" opacity="0.24"/><circle cx="749" cy="178" r="0.8" fill="#fff" opacity="0.49"/><circle cx="1487" cy="135" r="1" fill="#fff" opacity="0.48"/><circle cx="1467" cy="428" r="0.8" fill="#fff" opacity="0.50"/><circle cx="612" cy="118" r="1.3" fill="#fff" opacity="0.51"/><circle cx="159" cy="351" r="1" fill="#fff" opacity="0.57"/><circle cx="1208" cy="113" r="1" fill="#fff" opacity="0.57"/><circle cx="1018" cy="142" r="0.8" fill="#fff" opacity="0.70"/><circle cx="1224" cy="519" r="0.8" fill="#fff" opacity="0.37"/><circle cx="1629" cy="114" r="0.8" fill="#fff" opacity="0.35"/><circle cx="225" cy="289" r="1" fill="#fff" opacity="0.25"/><circle cx="976" cy="534" r="0.8" fill="#fff" opacity="0.53"/><circle cx="265" cy="334" r="0.8" fill="#fff" opacity="0.62"/><circle cx="717" cy="190" r="0.8" fill="#fff" opacity="0.45"/><circle cx="1329" cy="448" r="1" fill="#fff" opacity="0.70"/><circle cx="1134" cy="562" r="0.8" fill="#fff" opacity="0.43"/><circle cx="1010" cy="436" r="0.8" fill="#fff" opacity="0.42"/><circle cx="502" cy="79" r="1" fill="#fff" opacity="0.64"/><circle cx="614" cy="127" r="1.3" fill="#fff" opacity="0.57"/><circle cx="1569" cy="117" r="1" fill="#fff" opacity="0.66"/><circle cx="952" cy="325" r="1" fill="#fff" opacity="0.50"/><circle cx="364" cy="580" r="0.8" fill="#fff" opacity="0.25"/><circle cx="981" cy="615" r="1" fill="#fff" opacity="0.38"/><circle cx="1041" cy="130" r="1.3" fill="#fff" opacity="0.30"/><circle cx="14" cy="150" r="0.8" fill="#fff" opacity="0.56"/><circle cx="1490" cy="601" r="1" fill="#fff" opacity="0.37"/><circle cx="401" cy="46" r="1.3" fill="#fff" opacity="0.64"/><circle cx="1143" cy="394" r="0.8" fill="#fff" opacity="0.62"/><circle cx="1608" cy="340" r="1" fill="#fff" opacity="0.25"/><circle cx="1227" cy="192" r="1.3" fill="#fff" opacity="0.62"/><circle cx="1533" cy="438" r="1.3" fill="#fff" opacity="0.46"/><circle cx="886" cy="519" r="1.3" fill="#fff" opacity="0.70"/><circle cx="104" cy="216" r="1.3" fill="#fff" opacity="0.44"/><circle cx="494" cy="304" r="1.3" fill="#fff" opacity="0.60"/><circle cx="363" cy="330" r="1.3" fill="#fff" opacity="0.48"/><circle cx="394" cy="455" r="0.8" fill="#fff" opacity="0.35"/><circle cx="484" cy="103" r="1" fill="#fff" opacity="0.44"/><circle cx="689" cy="18" r="0.8" fill="#fff" opacity="0.25"/><circle cx="757" cy="26" r="0.8" fill="#fff" opacity="0.42"/><circle cx="396" cy="164" r="0.8" fill="#fff" opacity="0.26"/><circle cx="1274" cy="186" r="1.3" fill="#fff" opacity="0.48"/><circle cx="710" cy="387" r="1" fill="#fff" opacity="0.34"/><circle cx="67" cy="109" r="0.8" fill="#fff" opacity="0.58"/><circle cx="1584" cy="77" r="0.8" fill="#fff" opacity="0.68"/><circle cx="885" cy="210" r="1.3" fill="#fff" opacity="0.28"/><circle cx="1183" cy="15" r="0.8" fill="#fff" opacity="0.21"/><circle cx="873" cy="308" r="1.3" fill="#fff" opacity="0.20"/><circle cx="1034" cy="333" r="1" fill="#fff" opacity="0.34"/><circle cx="157" cy="111" r="1.3" fill="#fff" opacity="0.60"/><circle cx="247" cy="12" r="1" fill="#fff" opacity="0.44"/><circle cx="1059" cy="598" r="1" fill="#fff" opacity="0.55"/><circle cx="202" cy="403" r="1" fill="#fff" opacity="0.43"/><g transform="translate(455.0 207.0) scale(2.100)">
<defs><linearGradient id="g1" gradientUnits="userSpaceOnUse" x1="8" y1="15" x2="92" y2="85"><stop offset="0" stop-color="#E0B030"/><stop offset="1" stop-color="#C8473D"/></linearGradient>
<linearGradient id="g2" gradientUnits="userSpaceOnUse" x1="92" y1="15" x2="8" y2="85"><stop offset="0" stop-color="#C8473D"/><stop offset="1" stop-color="#E0B030"/></linearGradient></defs>
<g fill="none" stroke-width="4.6" stroke-linejoin="round" stroke-linecap="round">
<polygon points="66,15 92,15 34,85 8,85" stroke="url(#g2)"/>
<polygon points="8,15 34,15 92,85 66,85" stroke="url(#g1)"/>
<line x1="62.4" y1="20.2" x2="46" y2="40" stroke="#000" stroke-width="7.4" stroke-linecap="butt"/>
<line x1="46.5" y1="30.1" x2="53.5" y2="38.5" stroke="#000" stroke-width="8.6" stroke-linecap="butt"/><line x1="46.5" y1="30.1" x2="53.5" y2="38.5" stroke="url(#g1)" stroke-width="4.6" stroke-linecap="butt"/>
</g><circle cx="55" cy="28" r="3" fill="#C8473D"/></g><defs><linearGradient id="wg" x1="0" y1="0" x2="1" y2="1"><stop offset="0" stop-color="#E0B030"/><stop offset="1" stop-color="#C8473D"/></linearGradient></defs><text x="680" y="330" text-anchor="start" font-family="'Montserrat','Inter','Helvetica Neue',Arial,sans-serif" font-weight="700" font-size="104" letter-spacing="9.4" fill="#fff" >CONSTRUAV<tspan fill="url(#wg)">X</tspan></text><text x="684" y="392" text-anchor="start" font-family="'JetBrains Mono','DejaVu Sans Mono',monospace" font-weight="400" font-size="22" fill="#8b8b90" letter-spacing="8">GRUPO X · TEAM X</text><line x1="684" y1="420" x2="1060" y2="420" stroke="#E0B030" stroke-width="3"/><line x1="684" y1="406" x2="684" y2="434" stroke="#E0B030" stroke-width="3"/><text x="684" y="466" text-anchor="start" font-family="'Inter Tight','Inter','Helvetica Neue',Arial,sans-serif" font-weight="300" font-size="26" fill="#8b8b90" letter-spacing="-1">Te ayudamos a construir · We help you build</text></svg>