<svg xmlns="http://www.w3.org/2000/svg" viewBox="0 0 1640 624"><rect width="1640" height="624" fill="#000"/><g stroke="#fff" stroke-opacity=".07" stroke-width="1"><line x1="0" y1="0" x2="0" y2="624"/><line x1="60" y1="0" x2="60" y2="624"/><line x1="120" y1="0" x2="120" y2="624"/><line x1="180" y1="0" x2="180" y2="624"/><line x1="240" y1="0" x2="240" y2="624"/><line x1="300" y1="0" x2="300" y2="624"/><line x1="360" y1="0" x2="360" y2="624"/><line x1="420" y1="0" x2="420" y2="624"/><line x1="480" y1="0" x2="480" y2="624"/><line x1="540" y1="0" x2="540" y2="624"/><line x1="600" y1="0" x2="600" y2="624"/><line x1="660" y1="0" x2="660" y2="624"/><line x1="720" y1="0" x2="720" y2="624"/><line x1="780" y1="0" x2="780" y2="624"/><line x1="840" y1="0" x2="840" y2="624"/><line x1="900" y1="0" x2="900" y2="624"/><line x1="960" y1="0" x2="960" y2="624"/><line x1="1020" y1="0" x2="1020" y2="624"/><line x1="1080" y1="0" x2="1080" y2="624"/><line x1="1140" y1="0" x2="1140" y2="624"/><line x1="1200" y1="0" x2="1200" y2="624"/><line x1="1260" y1="0" x2="1260" y2="624"/><line x1="1320" y1="0" x2="1320" y2="624"/><line x1="1380" y1="0" x2="1380" y2="624"/><line x1="1440" y1="0" x2="1440" y2="624"/><line x1="1500" y1="0" x2="1500" y2="624"/><line x1="1560" y1="0" x2="1560" y2="624"/><line x1="1620" y1="0" x2="1620" y2="624"/><line x1="0" y1="0" x2="1640" y2="0"/><line x1="0" y1="60" x2="1640" y2="60"/><line x1="0" y1="120" x2="1640" y2="120"/><line x1="0" y1="180" x2="1640" y2="180"/><line x1="0" y1="240" x2="1640" y2="240"/><line x1="0" y1="300" x2="1640" y2="300"/><line x1="0" y1="360" x2="1640" y2="360"/><line x1="0" y1="420" x2="1640" y2="420"/><line x1="0" y1="480" x2="1640" y2="480"/><line x1="0" y1="540" x2="1640" y2="540"/><line x1="0" y1="600" x2="1640" y2="600"/></g><g transform="translate(560.0 312.0) scale(1.750)">
<defs><linearGradient id="cgc" gradientUnits="userSpaceOnUse" x1="-52" y1="-58" x2="-4" y2="40"><stop offset="0" stop-color="#E0B030"/><stop offset="1" stop-color="#C8473D"/></linearGradient>
<clipPath id="rcl"><polygon points="4,-57.7 52,-30 52,30 4,57.7"/></clipPath></defs>
<polygon points="-52,-30 -4,-57.7 -4,-45.7 -39,-25.5 -39,7.5 -4,27.7 -4,39.7 -52,12" fill="url(#cgc)" stroke="url(#cgc)" stroke-width="1.2" stroke-linejoin="round"/>
<g clip-path="url(#rcl)" stroke="#f2f2f2" stroke-width="17"><line x1="-2" y1="-70" x2="58" y2="40"/><line x1="58" y1="-40" x2="-2" y2="70"/></g>
<polygon points="-52,16.5 0,46.5 4,48.8 4,57.7 0,60 -52,30" fill="#f2f2f2" stroke="#f2f2f2" stroke-width=".6" stroke-linejoin="round"/>
</g><defs><linearGradient id="wg" x1="0" y1="0" x2="1" y2="1"><stop offset="0" stop-color="#E0B030"/><stop offset="1" stop-color="#C8473D"/></linearGradient></defs><text x="680" y="330" text-anchor="start" font-family="'Montserrat','Inter','Helvetica Neue',Arial,sans-serif" font-weight="700" font-size="104" letter-spacing="9.4" fill="#fff" >CONSTRU<tspan fill="url(#wg)">AVX</tspan></text><text x="684" y="392" text-anchor="start" font-family="'JetBrains Mono','DejaVu Sans Mono',monospace" font-weight="400" font-size="22" fill="#8b8b90" letter-spacing="8">GRUPO X · TEAM X</text><line x1="684" y1="420" x2="1060" y2="420" stroke="#E0B030" stroke-width="3"/><line x1="684" y1="406" x2="684" y2="434" stroke="#E0B030" stroke-width="3"/><text x="684" y="466" text-anchor="start" font-family="'Inter Tight','Inter','Helvetica Neue',Arial,sans-serif" font-weight="300" font-size="26" fill="#8b8b90" letter-spacing="-1">Te ayudamos a construir · We help you build</text></svg>