<svg xmlns="http://www.w3.org/2000/svg" viewBox="0 0 1080 1080"><defs><linearGradient id="xg" x1="0" y1="0" x2="1" y2="1"><stop offset="0" stop-color="#E0B030"/><stop offset="1" stop-color="#C8473D"/></linearGradient><clipPath id="lh"><rect x="-20" y="50" width="140" height="70"/></clipPath></defs><rect width="1080" height="1080" fill="#000"/><circle cx="912" cy="819" r="1" fill="#fff" opacity="0.22"/><circle cx="1043" cy="525" r="1" fill="#fff" opacity="0.68"/><circle cx="387" cy="963" r="0.8" fill="#fff" opacity="0.45"/><circle cx="304" cy="816" r="1.3" fill="#fff" opacity="0.60"/><circle cx="1066" cy="575" r="1.3" fill="#fff" opacity="0.61"/><circle cx="974" cy="335" r="1.3" fill="#fff" opacity="0.24"/><circle cx="919" cy="357" r="1.3" fill="#fff" opacity="0.25"/><circle cx="469" cy="660" r="0.8" fill="#fff" opacity="0.68"/><circle cx="515" cy="935" r="1" fill="#fff" opacity="0.23"/><circle cx="992" cy="989" r="0.8" fill="#fff" opacity="0.56"/><circle cx="431" cy="891" r="1.3" fill="#fff" opacity="0.51"/><circle cx="661" cy="894" r="1" fill="#fff" opacity="0.32"/><circle cx="351" cy="940" r="0.8" fill="#fff" opacity="0.66"/><circle cx="239" cy="868" r="0.8" fill="#fff" opacity="0.60"/><circle cx="484" cy="87" r="1" fill="#fff" opacity="0.64"/><circle cx="1078" cy="528" r="1" fill="#fff" opacity="0.48"/><circle cx="763" cy="591" r="1.3" fill="#fff" opacity="0.30"/><circle cx="863" cy="591" r="1" fill="#fff" opacity="0.42"/><circle cx="644" cy="416" r="1.3" fill="#fff" opacity="0.32"/><circle cx="199" cy="887" r="0.8" fill="#fff" opacity="0.51"/><circle cx="709" cy="515" r="0.8" fill="#fff" opacity="0.54"/><circle cx="141" cy="162" r="0.8" fill="#fff" opacity="0.62"/><circle cx="970" cy="997" r="1.3" fill="#fff" opacity="0.54"/><circle cx="905" cy="567" r="1.3" fill="#fff" opacity="0.61"/><circle cx="917" cy="967" r="1.3" fill="#fff" opacity="0.61"/><circle cx="453" cy="297" r="1" fill="#fff" opacity="0.53"/><circle cx="1076" cy="990" r="1" fill="#fff" opacity="0.24"/><circle cx="662" cy="525" r="1.3" fill="#fff" opacity="0.37"/><circle cx="206" cy="18" r="1" fill="#fff" opacity="0.26"/><circle cx="238" cy="858" r="1" fill="#fff" opacity="0.41"/><circle cx="67" cy="846" r="1.3" fill="#fff" opacity="0.31"/><circle cx="882" cy="685" r="1.3" fill="#fff" opacity="0.50"/><circle cx="80" cy="134" r="0.8" fill="#fff" opacity="0.50"/><circle cx="622" cy="423" r="1" fill="#fff" opacity="0.62"/><circle cx="125" cy="654" r="0.8" fill="#fff" opacity="0.68"/><circle cx="200" cy="134" r="0.8" fill="#fff" opacity="0.56"/><circle cx="66" cy="734" r="1.3" fill="#fff" opacity="0.41"/><circle cx="110" cy="281" r="0.8" fill="#fff" opacity="0.24"/><circle cx="325" cy="471" r="0.8" fill="#fff" opacity="0.45"/><circle cx="43" cy="109" r="1" fill="#fff" opacity="0.30"/><g transform="translate(260.0 240.0) scale(5.600)">
<line x1="-8" y1="-12" x2="108" y2="114" stroke="#fff" stroke-opacity=".22" stroke-width="1.6" stroke-linecap="round"/>
<g transform="translate(7 0) skewX(-8)" fill="none" stroke="url(#xg)" stroke-width="6" stroke-linejoin="round">
<polygon points="12,10 36,10 88,90 64,90"/>
<polygon points="64,10 88,10 36,90 12,90" fill="#000"/>
<g clip-path="url(#lh)"><polygon points="12,10 36,10 88,90 64,90" fill="#000"/></g>
</g>
<circle cx="97" cy="8" r="4.2" fill="#C8473D"/></g></svg>